<?xml version="1.0" encoding="UTF-8" standalone="no"?>
<svg width="512" height="512" viewBox="0 0 512 512" version="1.2" baseProfile="tiny-ps" xmlns="http://www.w3.org/2000/svg" xml:space="preserve" style="fill-rule:evenodd;clip-rule:evenodd;stroke-linejoin:round;stroke-miterlimit:2;">
  <title>Cyberani</title>
  
  <rect width="512" height="512" fill="#ffffff" stroke="none" />
  
  <g transform="matrix(0.170995,0,0,0.170995,196.357,223.243)">
    <g transform="matrix(670.833,0,0,670.833,-943,357.719)">
      <path d="M0.307,0.012C0.253,0.012 0.208,0.006 0.173,-0.007C0.137,-0.019 0.109,-0.04 0.089,-0.067C0.068,-0.095 0.053,-0.132 0.045,-0.176C0.036,-0.221 0.032,-0.275 0.032,-0.339C0.032,-0.403 0.036,-0.457 0.045,-0.501C0.053,-0.546 0.068,-0.582 0.089,-0.61C0.11,-0.638 0.138,-0.658 0.175,-0.671C0.211,-0.683 0.257,-0.69 0.313,-0.69C0.334,-0.69 0.356,-0.688 0.381,-0.686C0.405,-0.683 0.429,-0.68 0.452,-0.676C0.476,-0.672 0.496,-0.668 0.513,-0.664L0.508,-0.525C0.496,-0.527 0.48,-0.529 0.461,-0.531C0.443,-0.533 0.423,-0.534 0.403,-0.536C0.383,-0.537 0.364,-0.538 0.346,-0.538C0.318,-0.538 0.296,-0.535 0.278,-0.529C0.26,-0.522 0.247,-0.512 0.238,-0.497C0.228,-0.482 0.222,-0.461 0.218,-0.436C0.214,-0.411 0.213,-0.379 0.213,-0.339C0.213,-0.301 0.214,-0.268 0.218,-0.242C0.222,-0.217 0.228,-0.196 0.238,-0.181C0.247,-0.167 0.261,-0.156 0.278,-0.15C0.296,-0.143 0.319,-0.14 0.347,-0.14C0.373,-0.14 0.402,-0.141 0.433,-0.143C0.464,-0.145 0.49,-0.148 0.51,-0.15L0.513,-0.012C0.498,-0.009 0.479,-0.005 0.456,-0.001C0.433,0.003 0.409,0.006 0.383,0.008C0.357,0.011 0.332,0.012 0.307,0.012Z" style="fill:#ff7900;fill-rule:nonzero;"/>
    </g>
    <g transform="matrix(670.833,0,0,670.833,-588.862,357.719)">
      <path d="M0.179,0.204L0.243,-0L0.114,-0L0.01,-0.503L0.191,-0.503L0.257,-0.144L0.278,-0.144L0.343,-0.503L0.515,-0.503L0.366,0.204L0.179,0.204Z" style="fill:#000000;fill-rule:nonzero;"/>
    </g>
    <g transform="matrix(670.833,0,0,670.833,-237.361,357.719)">
      <path d="M0.265,0.012C0.247,0.012 0.225,0.011 0.198,0.009C0.172,0.007 0.144,0.005 0.117,0.002C0.089,-0.001 0.064,-0.004 0.043,-0.007L0.043,-0.7L0.215,-0.7L0.215,-0.493C0.225,-0.496 0.236,-0.5 0.25,-0.503C0.264,-0.506 0.278,-0.509 0.293,-0.512C0.308,-0.514 0.321,-0.515 0.333,-0.515C0.381,-0.515 0.419,-0.505 0.447,-0.485C0.476,-0.465 0.496,-0.436 0.508,-0.398C0.52,-0.36 0.526,-0.314 0.526,-0.26C0.526,-0.193 0.518,-0.139 0.503,-0.1C0.487,-0.06 0.46,-0.031 0.422,-0.014C0.384,0.003 0.332,0.012 0.265,0.012ZM0.267,-0.13C0.292,-0.13 0.31,-0.135 0.321,-0.145C0.333,-0.155 0.341,-0.169 0.346,-0.189C0.35,-0.208 0.352,-0.23 0.352,-0.257C0.352,-0.286 0.35,-0.309 0.345,-0.326C0.341,-0.343 0.334,-0.355 0.324,-0.363C0.314,-0.37 0.3,-0.374 0.284,-0.374C0.277,-0.374 0.269,-0.373 0.26,-0.371C0.251,-0.37 0.243,-0.368 0.235,-0.366C0.227,-0.364 0.22,-0.361 0.215,-0.359L0.215,-0.133C0.222,-0.132 0.231,-0.132 0.241,-0.131C0.251,-0.13 0.26,-0.13 0.267,-0.13Z" style="fill:#000000;fill-rule:nonzero;"/>
    </g>
    <g transform="matrix(670.833,0,0,670.833,134.335,357.719)">
      <path d="M0.264,0.012C0.205,0.012 0.159,0.003 0.124,-0.016C0.089,-0.034 0.065,-0.062 0.05,-0.1C0.035,-0.138 0.027,-0.186 0.027,-0.244C0.027,-0.305 0.036,-0.355 0.054,-0.395C0.071,-0.435 0.098,-0.465 0.134,-0.485C0.17,-0.505 0.215,-0.515 0.271,-0.515C0.35,-0.515 0.41,-0.496 0.45,-0.459C0.491,-0.422 0.511,-0.363 0.511,-0.282L0.503,-0.198L0.2,-0.198C0.2,-0.171 0.206,-0.151 0.218,-0.138C0.23,-0.125 0.249,-0.119 0.277,-0.119C0.299,-0.119 0.322,-0.119 0.349,-0.12C0.375,-0.121 0.402,-0.123 0.428,-0.124C0.454,-0.125 0.476,-0.127 0.494,-0.128L0.498,-0.013C0.48,-0.009 0.458,-0.006 0.432,-0.002C0.405,0.002 0.377,0.005 0.348,0.008C0.318,0.011 0.29,0.012 0.264,0.012ZM0.199,-0.299L0.339,-0.299C0.339,-0.333 0.333,-0.357 0.323,-0.371C0.312,-0.385 0.295,-0.391 0.271,-0.391C0.254,-0.391 0.241,-0.388 0.23,-0.382C0.22,-0.376 0.212,-0.366 0.207,-0.352C0.202,-0.339 0.199,-0.321 0.199,-0.299Z" style="fill:#000000;fill-rule:nonzero;"/>
    </g>
    <g transform="matrix(670.833,0,0,670.833,493.435,357.719)">
      <path d="M0.044,-0L0.044,-0.503L0.215,-0.503L0.215,-0.449C0.226,-0.458 0.239,-0.467 0.253,-0.477C0.268,-0.486 0.284,-0.495 0.301,-0.502C0.318,-0.51 0.334,-0.514 0.348,-0.516L0.348,-0.353C0.334,-0.352 0.319,-0.348 0.302,-0.343C0.286,-0.338 0.27,-0.332 0.255,-0.325C0.239,-0.319 0.226,-0.312 0.215,-0.307L0.215,-0L0.044,-0Z" style="fill:#000000;fill-rule:nonzero;"/>
    </g>
    <g transform="matrix(670.833,0,0,670.833,735.297,357.719)">
      <path d="M0.19,0.012C0.133,0.012 0.091,-0.001 0.063,-0.028C0.035,-0.055 0.021,-0.096 0.021,-0.152C0.021,-0.192 0.028,-0.223 0.043,-0.244C0.059,-0.265 0.081,-0.28 0.109,-0.289C0.138,-0.298 0.172,-0.303 0.212,-0.305L0.313,-0.312L0.313,-0.334C0.313,-0.35 0.308,-0.362 0.298,-0.369C0.288,-0.375 0.273,-0.379 0.254,-0.379C0.234,-0.379 0.212,-0.378 0.186,-0.377C0.161,-0.375 0.136,-0.374 0.112,-0.372C0.088,-0.37 0.067,-0.368 0.049,-0.366L0.044,-0.485C0.063,-0.489 0.084,-0.494 0.11,-0.499C0.136,-0.503 0.163,-0.507 0.191,-0.51C0.219,-0.514 0.245,-0.515 0.27,-0.515C0.315,-0.515 0.353,-0.51 0.385,-0.5C0.418,-0.49 0.442,-0.472 0.459,-0.448C0.477,-0.423 0.485,-0.389 0.485,-0.344L0.485,-0.132C0.487,-0.126 0.492,-0.121 0.499,-0.117C0.506,-0.113 0.513,-0.111 0.521,-0.109L0.518,0.004C0.507,0.005 0.496,0.006 0.484,0.007C0.472,0.008 0.461,0.009 0.451,0.009C0.44,0.009 0.432,0.009 0.425,0.008C0.405,0.007 0.388,0.003 0.375,-0.004C0.362,-0.01 0.352,-0.017 0.346,-0.024C0.336,-0.02 0.323,-0.014 0.306,-0.008C0.289,-0.003 0.271,0.002 0.251,0.006C0.231,0.01 0.211,0.012 0.19,0.012ZM0.234,-0.11C0.244,-0.11 0.254,-0.112 0.264,-0.114C0.273,-0.116 0.283,-0.119 0.292,-0.122C0.301,-0.125 0.308,-0.128 0.313,-0.131L0.313,-0.213L0.24,-0.206C0.224,-0.205 0.212,-0.2 0.205,-0.192C0.197,-0.183 0.193,-0.171 0.193,-0.157C0.193,-0.142 0.196,-0.131 0.203,-0.123C0.21,-0.115 0.22,-0.11 0.234,-0.11Z" style="fill:#000000;fill-rule:nonzero;"/>
    </g>
    <g transform="matrix(670.833,0,0,670.833,1095.85,357.719)">
      <path d="M0.044,-0L0.044,-0.503L0.215,-0.503L0.215,-0.474C0.225,-0.48 0.237,-0.486 0.251,-0.493C0.265,-0.499 0.28,-0.504 0.296,-0.509C0.312,-0.513 0.326,-0.515 0.34,-0.515C0.376,-0.515 0.405,-0.511 0.429,-0.502C0.453,-0.493 0.472,-0.478 0.486,-0.458C0.5,-0.437 0.51,-0.411 0.516,-0.378C0.522,-0.345 0.526,-0.305 0.526,-0.257L0.526,-0 Play0.353,-0L0.353,-0.247C0.353,-0.275 0.352,-0.298 0.348,-0.316C0.345,-0.333 0.339,-0.346 0.33,-0.354C0.321,-0.362 0.309,-0.366 0.293,-0.366C0.284,-0.366 0.274,-0.365 0.265,-0.363C0.255,-0.362 0.246,-0.359 0.237,-0.357C0.228,-0.354 0.221,-0.351 0.215,-0.349L0.215,-0L0.044,-0Z" style="fill:#000000;fill-rule:nonzero;"/>
    </g>
    <g transform="matrix(670.833,0,0,670.833,1474.05,357.719)">
      <path d="M0.044,-0L0.044,-0.503L0.215,-0.503L0.215,-0L0.044,-0ZM0.043,-0.563L0.043,-0.694L0.216,-0.694L0.216,-0.563L0.043,-0.563Z" style="fill:#000000;fill-rule:nonzero;"/>
    </g>
  </g>
</svg>
