<?xml version="1.0" encoding="utf-8"?>
<svg version="1.2" baseProfile="tiny-ps" id="Layer_1" xmlns:serif="http://www.serif.com/"
	 xmlns="http://www.w3.org/2000/svg" xmlns:xlink="http://www.w3.org/1999/xlink" viewBox="0 0 300 300"
	 xml:space="preserve">
<title>Cyberani Ltd</title>
<rect fill-rule="evenodd" fill="#FFFFFF" width="300" height="300"/>
<path fill="#FF7900" d="M41.2,167.5c-3.6,0-6.7-0.4-9-1.3c-2.4-0.8-4.3-2.2-5.6-4c-1.4-1.9-2.4-4.4-3-7.3c-0.6-3-0.9-6.7-0.9-11
	s0.3-7.9,0.9-10.9c0.5-3,1.5-5.4,3-7.3c1.4-1.9,3.3-3.2,5.8-4.1c2.4-0.8,5.5-1.3,9.3-1.3c1.4,0,2.9,0.1,4.6,0.3
	c1.6,0.2,3.2,0.4,4.8,0.7c1.6,0.3,3,0.5,4.1,0.8l-0.3,9.3c-0.8-0.1-1.9-0.3-3.2-0.4c-1.2-0.1-2.6-0.2-3.9-0.3
	c-1.3-0.1-2.6-0.1-3.8-0.1c-1.9,0-3.4,0.2-4.6,0.6c-1.2,0.5-2.1,1.1-2.7,2.2c-0.7,1-1.1,2.4-1.3,4.1s-0.3,3.8-0.3,6.5
	c0,2.6,0.1,4.8,0.3,6.5c0.3,1.7,0.7,3.1,1.3,4.1c0.6,0.9,1.5,1.7,2.7,2.1c1.2,0.5,2.8,0.7,4.6,0.7c1.7,0,3.7-0.1,5.8-0.2
	c2.1-0.1,3.8-0.3,5.2-0.5l0.2,9.3c-1,0.2-2.3,0.5-3.8,0.7c-1.5,0.3-3.2,0.5-4.9,0.6C44.6,167.4,42.9,167.5,41.2,167.5z"/>
<path d="M68.1,180.4l4.3-13.7h-8.7l-7-33.8h12.2l4.4,24.1h1.4l4.4-24.1h11.6l-10,47.5H68.1z"/>
<path d="M109.1,167.5c-1.2,0-2.7-0.1-4.5-0.2c-1.7-0.1-3.6-0.3-5.4-0.5c-1.9-0.2-3.6-0.4-5-0.6v-46.6h11.6v13.9
	c0.7-0.2,1.4-0.5,2.4-0.7c0.9-0.2,1.9-0.4,2.9-0.6c1-0.1,1.9-0.2,2.7-0.2c3.2,0,5.8,0.7,7.7,2c1.9,1.3,3.3,3.3,4.1,5.8
	c0.8,2.6,1.2,5.6,1.2,9.3c0,4.5-0.5,8.1-1.5,10.8c-1.1,2.7-2.9,4.6-5.4,5.8S113.6,167.5,109.1,167.5z M109.2,157.9
	c1.7,0,2.9-0.3,3.6-1c0.8-0.7,1.3-1.6,1.7-3c0.3-1.3,0.4-2.8,0.4-4.6c0-1.9-0.1-3.5-0.5-4.6c-0.3-1.1-0.7-1.9-1.4-2.5
	c-0.7-0.5-1.6-0.7-2.7-0.7c-0.5,0-1,0.1-1.6,0.2c-0.6,0.1-1.1,0.2-1.7,0.3c-0.5,0.1-1,0.3-1.3,0.5v15.2c0.5,0.1,1.1,0.1,1.7,0.1
	C108.1,157.9,108.7,157.9,109.2,157.9z"/>
<path d="M146.3,167.5c-4,0-7.1-0.6-9.4-1.9c-2.4-1.2-4-3.1-5-5.6c-1-2.6-1.5-5.8-1.5-9.7c0-4.1,0.6-7.5,1.8-10.1
	c1.1-2.7,3-4.7,5.4-6c2.4-1.3,5.4-2,9.2-2c5.3,0,9.3,1.3,12,3.8c2.8,2.5,4.1,6.5,4.1,11.9l-0.5,5.6H142c0,1.8,0.4,3.2,1.2,4
	s2.1,1.3,4,1.3c1.5,0,3,0,4.8-0.1c1.7-0.1,3.6-0.2,5.3-0.3c1.7-0.1,3.2-0.2,4.4-0.3l0.3,7.7c-1.2,0.3-2.7,0.5-4.4,0.7
	c-1.8,0.3-3.7,0.5-5.6,0.7C149.9,167.4,148,167.5,146.3,167.5z M141.9,146.6h9.4c0-2.3-0.4-3.9-1.1-4.8c-0.7-0.9-1.9-1.3-3.5-1.3
	c-1.1,0-2,0.2-2.8,0.6c-0.7,0.4-1.2,1.1-1.5,2C142.1,143.9,141.9,145.1,141.9,146.6z"/>
<path d="M167.4,166.6v-33.8h11.5v3.6c0.7-0.6,1.6-1.2,2.6-1.9c1-0.6,2.1-1.2,3.2-1.7c1.1-0.5,2.2-0.8,3.2-0.9v11
	c-0.9,0.1-1.9,0.3-3.1,0.7c-1.1,0.3-2.2,0.7-3.2,1.2c-1.1,0.4-1.9,0.9-2.7,1.2v20.6H167.4z"/>
<path d="M201.5,167.5c-3.8,0-6.7-0.9-8.5-2.7c-1.9-1.8-2.8-4.6-2.8-8.3c0-2.7,0.5-4.8,1.5-6.2c1.1-1.4,2.6-2.4,4.4-3
	c1.9-0.6,4.2-0.9,6.9-1.1l6.8-0.5v-1.5c0-1.1-0.3-1.9-1-2.4c-0.7-0.4-1.7-0.7-3-0.7c-1.3,0-2.8,0.1-4.6,0.1c-1.7,0.1-3.4,0.2-5,0.3
	s-3,0.3-4.2,0.4l-0.3-8c1.3-0.3,2.7-0.6,4.4-0.9c1.7-0.3,3.6-0.5,5.4-0.7c1.9-0.3,3.6-0.3,5.3-0.3c3,0,5.6,0.3,7.7,1
	c2.2,0.7,3.8,1.9,5,3.5c1.2,1.7,1.7,4,1.7,7v14.2c0.1,0.4,0.5,0.7,0.9,1c0.5,0.3,0.9,0.4,1.5,0.5l-0.2,7.6c-0.7,0.1-1.5,0.1-2.3,0.2
	s-1.5,0.1-2.2,0.1c-0.7,0-1.3,0-1.7-0.1c-1.3-0.1-2.5-0.3-3.4-0.8c-0.9-0.4-1.5-0.9-1.9-1.3c-0.7,0.3-1.5,0.7-2.7,1.1
	c-1.1,0.3-2.4,0.7-3.7,0.9C204.3,167.3,202.9,167.5,201.5,167.5z M204.5,159.3c0.7,0,1.3-0.1,2-0.3c0.6-0.1,1.3-0.3,1.9-0.5
	c0.6-0.2,1.1-0.4,1.4-0.6v-5.5l-4.9,0.5c-1.1,0.1-1.9,0.4-2.4,0.9c-0.5,0.6-0.8,1.4-0.8,2.4c0,1,0.2,1.7,0.7,2.3
	C202.8,158.9,203.5,159.3,204.5,159.3z"/>
<path d="M227.8,166.6v-33.8h11.5v1.9c0.7-0.4,1.5-0.8,2.4-1.3c0.9-0.4,1.9-0.7,3-1.1c1.1-0.3,2-0.4,3-0.4c2.4,0,4.4,0.3,6,0.9
	c1.6,0.6,2.9,1.6,3.8,3c0.9,1.4,1.6,3.2,2,5.4c0.4,2.2,0.7,4.9,0.7,8.1v17.3h-11.6V150c0-1.9-0.1-3.4-0.3-4.6
	c-0.2-1.1-0.6-2-1.2-2.6c-0.6-0.5-1.4-0.8-2.5-0.8c-0.6,0-1.3,0.1-1.9,0.2c-0.7,0.1-1.3,0.3-1.9,0.4c-0.6,0.2-1.1,0.4-1.5,0.5v23.5
	H227.8z"/>
<path d="M265.7,166.6v-33.8h11.5v33.8H265.7z M265.6,128.8V120h11.6v8.8H265.6z"/>
</svg>
